<svg xmlns="http://www.w3.org/2000/svg" width="562.667" height="562.667" version="1" viewBox="0 0 422 422"><path d="M104.5 18c-8.7 4.4-16.2 8.5-16.5 9.1-.4.6-.7 5-.6 9.8l.1 8.6 11.7 6 11.7 6-.4 6.5c-.3 3.6-.7 7.6-1 9-.3 1.4-.8 6.5-1.1 11.5-.4 4.9-.9 11.7-1.1 15.1l-.5 6.1-9.8 4.6c-11.1 5.3-10.9 5-10 18.2l.5 6.9 7.9 4 7.8 3.9-.7 5c-.3 2.8-1.3 6.6-2.1 8.6-.9 2-1.7 4-1.8 4.6-.2.5-.6 1.9-1.1 3-.4 1.1-2.1 5.6-3.7 10-1.7 4.4-3.6 9.3-4.4 10.8-.8 1.6-1.4 3.6-1.4 4.6 0 .9-.4 2.1-.8 2.7-.5.5-1.7 3.1-2.6 5.7-1 2.6-2.8 6-4.1 7.5-4.6 5.5-4.6 5.5-4.3 102.2l.3 91.5L79 403c3.4 4.8 5.8 6.7 10.5 8 2.9.8 38.4 1 124 .8l120-.3 3.5-2.5c4.8-3.4 6.7-5.8 8-10.5.8-2.8 1-30.7.8-95.5-.3-90.1-.3-91.5-2.3-94.5-3-4.3-4-6.8-7.5-18-1.8-5.5-3.6-10.9-4-12-.5-1.1-1.6-4.3-2.5-7-1-2.8-3.5-10.2-5.6-16.5-2.1-6.3-3.9-11.7-3.9-12.1 0-.3 3-2.2 6.6-4 3.6-1.9 6.8-3.7 7-4 .3-.6.7-14 .5-18.1-.1-1.2-3-3.1-8.8-5.9-4.9-2.2-8.9-4.2-9.1-4.3-.1-.2-.4-4.3-.7-9.2-.5-8.4-.8-11.9-2.1-25.4-.3-3-.6-7.8-.7-10.7-.2-5.2-.2-5.2 3.8-7 2.2-.9 5.7-2.7 7.7-4 2.1-1.3 4.4-2.3 5.2-2.3 3.6 0 5-8.1 3.7-20.7 0-.7-7.6-4.9-16.7-9.4l-16.6-8.3L256 31.8C231.9 44 211.7 54 211.2 54c-.6 0-20.5-9.6-44.1-21.4-23.6-11.8-43.8-21.7-44.9-22-1.3-.4-7.3 2.1-17.7 7.4zm198.9 51c.4 4.1.9 9.5 1.1 12 1.4 16.1 1.5 20 .3 20-1.1 0-29.3-13.4-38.3-18.2l-2.9-1.6 10.9-5.5c6.1-3 14.8-7.6 19.5-10 4.7-2.5 8.5-4.5 8.6-4.4.1.1.4 3.6.8 7.7zM148 76.5l9.5 4.8-15 7.5c-8.3 4.1-17.4 8.6-20.4 9.9l-5.3 2.4.6-6.8c.4-3.7.9-9.1 1.2-11.8.6-6.3 1.3-15.3 1.3-18.3.1-2.3.4-2.2 9.4 2.6 5 2.7 13.5 7.1 18.7 9.7zm87.5 43.6c13.2 6.7 24.5 12.5 25 12.9 1.9 1.5 37.4 19 38.6 19 .6 0 3.3-1.1 6-2.5 4.3-2.1 4.9-2.2 5-.7.2 5.7 1.2 20.2 2.4 33.2.3 3 .7 8.1 1 11.2l.5 5.8H108l-.1-2.3c-.1-1.2 0-2.7.1-3.2.5-2.1.9-6.4 2-17.5 1.8-20 2.1-22.1 3.1-24.7.7-1.9 1.4-2.3 2.7-1.8 7.5 3.2-1.2 6.9 80.2-34.2 8-4 14.7-7.3 15-7.3.2 0 11.2 5.4 24.5 12.1zm88.4 64.6c.6 2.1 1.1 4.1 1.1 4.5.1.4.7 2.3 1.5 4.2 2 4.8 1.9 5.8-.7 5.4-1.9-.3-2.2-1-2.5-5.8-.2-3-.5-7-.7-8.8-.6-4.3.1-4.1 1.3.5zm-225.5 8c-.2 2.1-.3 4.4-.3 5-.1.7-.8 1.3-1.7 1.3-1.1 0-1.4-.5-.9-1.8.4-.9 1.1-3.2 1.7-5 1.2-4.2 1.6-4.1 1.2.5z"/></svg>