<svg xmlns="http://www.w3.org/2000/svg" xmlns:xlink="http://www.w3.org/1999/xlink" id="Layer_1" width="24" height="24" enable-background="new 0 0 24 24" version="1.1" viewBox="0 0 24 24" xml:space="preserve"><path fill="#262626" fill-rule="evenodd" d="M12,3c-5,0-9,4-9,9c0,5,4,9,9,9s9-4,9-9C21,7,17,3,12,3z M15,18.3 c-0.1-0.2-0.2-0.3-0.5-0.3c-0.3,0-0.5-0.2-0.5-0.5c0-0.3,1.2-0.5,1.5-0.5s0.5-0.2,0.5-0.5v-1c0-0.3-0.2-0.5-0.5-0.5H15 c-0.3,0-0.5,0-0.5,0v-0.5c0-0.3-0.2-0.5-0.5-0.5h-2.5c-0.3,0-0.5-0.2-0.5-0.5c0-0.3-0.2-0.5-0.5-0.5S10,12.8,10,12.5v-1 c0-0.3,0.2-0.5,0.5-0.5h1c0.3,0,0.5-0.2,0.5-0.5c0-0.3,0.2-0.5,0.5-0.5h1c0.3,0,0.5-0.2,0.5-0.5v-2C14,7.2,13.8,7,13.5,7 S13,6.8,13,6.5C13,6.2,12.8,6,12.5,6h-3C9.2,6,9,6.2,9,6.5v1C9,7.8,8.8,8,8.5,8h-1C7.2,8,7,8.2,7,8.5v2C7,10.8,7.2,11,7.5,11 S8,11.2,8,11.5C8,11.8,8.2,12,8.5,12S9,12.2,9,12.5v1C9,13.8,9.2,14,9.5,14s0.5,0.2,0.5,0.5V15v0.5c0,0.3,0.2,0.5,0.5,0.5 s0.5,0.2,0.5,0.5c0,0.3,0.2,0.5,0.5,0.5s0.5,0.2,0.5,0.5c0,0.3,0.2,0.5,0.5,0.5s0.5,0.2,0.5,0.5c0,0.2,0.1,0.3,0.2,0.4 C12.8,19,12.4,19,12,19c-1.5,0-2.9-0.5-4-1.3c0-0.1,0-0.1,0-0.2L8,17c0,0,0,0,0,0l0-0.5C8,16.2,7.8,16,7.5,16h0 C7.2,16,7,15.8,7,15.5C7,15.2,6.8,15,6.5,15H5.7C5.3,14.1,5,13.1,5,12c0-3.9,3.1-7,7-7c1.1,0,2.1,0.3,3,0.7V6v0.5 C15,6.8,15.2,7,15.5,7S16,7.2,16,7.5C16,7.8,16.2,8,16.5,8S17,8.2,17,8.5V9v1v0.5c0,0.3,0.2,0.5,0.5,0.5s0.5,0.2,0.5,0.5 c0,0.3,0.2,0.5,0.5,0.5h0.3c0.1,0,0.1,0,0.2,0c0,0,0,0,0,0C19,14.8,17.3,17.2,15,18.3z" clip-rule="evenodd"/></svg>